<svg width="15" height="16" viewBox="0 0 15 16" fill="none" xmlns="http://www.w3.org/2000/svg">
<path d="M7.5 1.90601C4.13994 1.90601 1.40625 4.6397 1.40625 7.99975C1.40625 11.3598 4.13994 14.0935 7.5 14.0935C10.8601 14.0935 13.5937 11.3598 13.5937 7.99975C13.5937 4.6397 10.8601 1.90601 7.5 1.90601ZM10.6714 5.95747L6.73389 10.645C6.69069 10.6964 6.63695 10.738 6.57629 10.7668C6.51564 10.7957 6.44949 10.8112 6.38232 10.8123H6.37441C6.30871 10.8122 6.24375 10.7984 6.18374 10.7716C6.12373 10.7449 6.07001 10.7058 6.02607 10.657L4.33857 8.78198C4.29572 8.73653 4.26238 8.68296 4.24052 8.62444C4.21866 8.56592 4.20872 8.50361 4.21128 8.44119C4.21384 8.37877 4.22886 8.3175 4.25544 8.26096C4.28202 8.20443 4.31964 8.15377 4.36608 8.11198C4.41251 8.07019 4.46684 8.03811 4.52585 8.01761C4.58487 7.99712 4.64738 7.98862 4.70973 7.99263C4.77207 7.99664 4.83298 8.01308 4.88889 8.04096C4.94479 8.06885 4.99455 8.10763 5.03525 8.15503L6.36211 9.62925L9.95361 5.35454C10.0342 5.2614 10.1482 5.2037 10.2709 5.19392C10.3937 5.18414 10.5153 5.22306 10.6096 5.30226C10.7039 5.38147 10.7633 5.49461 10.7748 5.61721C10.7864 5.73981 10.7492 5.86204 10.6714 5.95747Z" fill="#68D391"/>
</svg>
