<svg width="21" height="20" viewBox="0 0 21 20" fill="none" xmlns="http://www.w3.org/2000/svg">
<g clip-path="url(#clip0_1_3354)">
<path d="M10.5002 6.66671C11.4168 6.66671 12.1668 5.91671 12.1668 5.00004C12.1668 4.08337 11.4168 3.33337 10.5002 3.33337C9.5835 3.33337 8.8335 4.08337 8.8335 5.00004C8.8335 5.91671 9.5835 6.66671 10.5002 6.66671ZM10.5002 8.33337C9.5835 8.33337 8.8335 9.08337 8.8335 10C8.8335 10.9167 9.5835 11.6667 10.5002 11.6667C11.4168 11.6667 12.1668 10.9167 12.1668 10C12.1668 9.08337 11.4168 8.33337 10.5002 8.33337ZM10.5002 13.3334C9.5835 13.3334 8.8335 14.0834 8.8335 15C8.8335 15.9167 9.5835 16.6667 10.5002 16.6667C11.4168 16.6667 12.1668 15.9167 12.1668 15C12.1668 14.0834 11.4168 13.3334 10.5002 13.3334Z" fill="#A0AEC0"/>
</g>
<defs>
<clipPath id="clip0_1_3354">
<rect width="20" height="20" fill="white" transform="translate(0.500244)"/>
</clipPath>
</defs>
</svg>
