<svg width="21" height="20" viewBox="0 0 21 20" fill="none" xmlns="http://www.w3.org/2000/svg">
<g clip-path="url(#clip0_1_3366)">
<path d="M4.04167 0H16.9583C18.9167 0 20.5 1.58333 20.5 3.54167V15.9583C20.5 17.9167 18.9167 19.5 16.9583 19.5H4.04167C2.08333 19.5 0.5 17.9167 0.5 15.9583V3.54167C0.5 1.58333 2.08333 0 4.04167 0Z" fill="#470137"/>
<path d="M11.0164 5.12421L8.51636 9.24921L11.183 13.6242C11.1997 13.6575 11.208 13.6909 11.1997 13.7242C11.1914 13.7575 11.158 13.7325 11.108 13.7409H9.19969C9.06636 13.7409 8.97469 13.7325 8.91636 13.6492C8.74136 13.2992 8.55802 12.9575 8.38302 12.6075C8.20802 12.2659 8.01636 11.9159 7.81636 11.5575C7.61636 11.1992 7.41636 10.8409 7.21636 10.4742H7.19969C7.02469 10.8325 6.83302 11.1909 6.64136 11.5492C6.44969 11.9075 6.25802 12.2659 6.07469 12.6159C5.88302 12.9659 5.69136 13.3242 5.49969 13.6659C5.46636 13.7492 5.39969 13.7575 5.30802 13.7575H3.47469C3.44136 13.7575 3.41636 13.7742 3.41636 13.7325C3.40802 13.6992 3.41636 13.6659 3.43302 13.6409L6.02469 9.39087L3.49969 5.11587C3.47469 5.08254 3.46636 5.04921 3.48302 5.03254C3.49969 5.00754 3.53302 4.99921 3.56636 4.99921H5.45802C5.49969 4.99921 5.54136 5.00754 5.57469 5.01587C5.60802 5.03254 5.63302 5.05754 5.65802 5.09087C5.81636 5.44921 5.99969 5.80754 6.19136 6.16587C6.39136 6.52421 6.58302 6.87421 6.79136 7.22421C6.99136 7.57421 7.17469 7.92421 7.34969 8.28254H7.36636C7.54136 7.91587 7.72469 7.55754 7.90802 7.20754C8.09136 6.85754 8.28302 6.50754 8.47469 6.15754C8.66636 5.80754 8.84969 5.44921 9.03302 5.10754C9.04136 5.07421 9.05802 5.04087 9.08302 5.02421C9.11636 5.00754 9.14969 4.99921 9.19136 5.00754H10.9497C10.9914 4.99921 11.033 5.02421 11.0414 5.06587C11.0497 5.07421 11.033 5.10754 11.0164 5.12421Z" fill="#FF61F6"/>
<path d="M14.8661 13.9166C14.2494 13.925 13.6327 13.8 13.0744 13.5416C12.5494 13.3 12.1161 12.9 11.8161 12.4083C11.5077 11.9 11.3577 11.2666 11.3577 10.5083C11.3494 9.89164 11.5077 9.28331 11.8161 8.74998C12.1327 8.20831 12.5911 7.75831 13.1411 7.45831C13.7244 7.13331 14.4244 6.97498 15.2494 6.97498C15.2911 6.97498 15.3494 6.97498 15.4244 6.98331C15.4994 6.99164 15.5827 6.99164 15.6827 6.99998V4.36664C15.6827 4.30831 15.7077 4.27498 15.7661 4.27498H17.4577C17.4994 4.26664 17.5327 4.29998 17.5411 4.33331C17.5411 4.34164 17.5411 4.34998 17.5411 4.34998V12.2833C17.5411 12.4333 17.5494 12.6 17.5577 12.7833C17.5744 12.9583 17.5827 13.125 17.5911 13.2666C17.5911 13.325 17.5661 13.375 17.5077 13.4C17.0744 13.5833 16.6161 13.7166 16.1494 13.8C15.7244 13.875 15.2994 13.9166 14.8661 13.9166ZM15.6827 12.25V8.58331C15.6077 8.56664 15.5327 8.54998 15.4577 8.54164C15.3661 8.53331 15.2744 8.52498 15.1827 8.52498C14.8577 8.52498 14.5327 8.59164 14.2411 8.74164C13.9577 8.88331 13.7161 9.09164 13.5327 9.35831C13.3494 9.62498 13.2577 9.98331 13.2577 10.4166C13.2494 10.7083 13.2994 11 13.3994 11.275C13.4827 11.5 13.6077 11.7 13.7744 11.8666C13.9327 12.0166 14.1244 12.1333 14.3411 12.2C14.5661 12.275 14.7994 12.3083 15.0327 12.3083C15.1577 12.3083 15.2744 12.3 15.3827 12.2916C15.4911 12.3 15.5827 12.2833 15.6827 12.25Z" fill="#FF61F6"/>
</g>
<defs>
<clipPath id="clip0_1_3366">
<rect width="20" height="19.5" fill="white" transform="translate(0.5)"/>
</clipPath>
</defs>
</svg>
