<svg width="74" height="27" viewBox="0 0 74 27" fill="none" xmlns="http://www.w3.org/2000/svg">
<path fill-rule="evenodd" clip-rule="evenodd" d="M2.25631 15.5515L0 11.6434L2.63587 7.09929L7.88916 7.08864L10.1455 10.9967L14.354 10.9985L16.9563 15.5058L14.3054 20.0239L10.1118 20.048L7.99418 23.6677L2.75592 23.7044L0.153632 19.1971L2.25631 15.5515ZM13.4332 18.5126L15.2056 15.5093L13.4606 12.4869L9.97344 12.5201L8.38884 15.2413L10.2843 18.5243L13.4332 18.5126ZM7.122 22.1564L8.70659 19.4351L6.81119 16.1522L3.66223 16.1639L1.88986 19.1672L3.63484 22.1896L7.122 22.1564ZM6.96827 14.6026L8.74064 11.5992L6.99566 8.57682L3.5085 8.61006L1.73613 11.6134L3.4811 14.6358L6.96827 14.6026Z" fill="white"/>
<path d="M28.6121 10.956C26.5241 10.956 24.8321 12 24.2561 13.62L26.5781 14.736C26.8661 13.854 27.6581 13.296 28.6121 13.296C29.5121 13.296 30.1241 13.782 30.1241 14.52V14.844L27.0461 15.492C25.0481 15.906 23.8961 16.86 23.8961 18.318C23.8961 19.956 25.3001 21.216 27.5321 21.216C28.6661 21.216 29.5661 20.874 30.3041 20.1V21H32.8241V14.52C32.8241 12.414 31.1141 10.956 28.6121 10.956ZM27.9461 19.236C27.1721 19.236 26.6861 18.876 26.6861 18.282C26.6861 17.832 26.9741 17.49 27.5321 17.364L30.1241 16.788V17.256C30.1241 18.354 29.1701 19.236 27.9461 19.236ZM39.0863 11.064C37.8803 11.064 36.9263 11.424 36.4223 12.648V11.172H33.9023V21H36.6023V15.708C36.6023 14.25 37.5023 13.404 38.8163 13.404H40.1123V11.064H39.0863ZM48.1092 11.172V12.216C47.4252 11.424 46.4172 10.956 45.1392 10.956C42.6372 10.956 40.2972 12.738 40.2972 15.708C40.2972 18.606 42.5292 20.514 45.1932 20.514C46.2912 20.514 47.2452 20.172 47.9292 19.524V20.478C47.9292 21.756 46.9212 22.566 45.5712 22.566C44.3832 22.566 43.5552 21.936 43.2492 20.874L40.9452 22.008C41.5212 23.808 43.3212 24.996 45.5712 24.996C48.3072 24.996 50.6292 23.232 50.6292 20.478V11.172H48.1092ZM45.5352 18.066C44.1492 18.066 43.0872 17.112 43.0872 15.744C43.0872 14.34 44.1852 13.386 45.5352 13.386C46.8852 13.386 47.9292 14.34 47.9292 15.744C47.9292 17.112 46.9212 18.066 45.5352 18.066ZM56.7772 21.216C59.6932 21.216 62.0332 19.056 62.0332 16.086C62.0332 13.116 59.6932 10.956 56.7772 10.956C53.8612 10.956 51.5212 13.116 51.5212 16.086C51.5212 19.056 53.8612 21.216 56.7772 21.216ZM56.7772 18.786C55.3012 18.786 54.3112 17.67 54.3112 16.086C54.3112 14.52 55.3012 13.386 56.7772 13.386C58.2532 13.386 59.2432 14.52 59.2432 16.086C59.2432 17.67 58.2532 18.786 56.7772 18.786ZM68.2076 10.956C66.9656 10.956 65.9576 11.406 65.4536 12.36V11.172H62.9336V21H65.6336V15.258C65.6336 14.124 66.3716 13.386 67.4336 13.386C68.4956 13.386 69.2336 14.124 69.2336 15.258V21H71.9336V14.682C71.9336 12.45 70.4216 10.956 68.2076 10.956Z" fill="white"/>
</svg>
