<svg width="16" height="15" viewBox="0 0 16 15" fill="none" xmlns="http://www.w3.org/2000/svg">
<path d="M12.6875 2.34314H3.3125C2.53585 2.34314 1.90625 2.97274 1.90625 3.74939V12.1869C1.90625 12.9635 2.53585 13.5931 3.3125 13.5931H12.6875C13.4641 13.5931 14.0937 12.9635 14.0937 12.1869V3.74939C14.0937 2.97274 13.4641 2.34314 12.6875 2.34314Z" fill="white" stroke="#2D3748" stroke-width="0.75" stroke-linejoin="round"/>
<path d="M12.1549 2.34314H3.84512C2.77607 2.34314 1.90625 3.22644 1.90625 4.31189V6.09314H2.375C2.375 5.62439 2.84375 5.15564 3.3125 5.15564H12.6875C13.1562 5.15564 13.625 5.62439 13.625 6.09314H14.0937V4.31189C14.0937 3.22644 13.2239 2.34314 12.1549 2.34314Z" fill="#2D3748"/>
<path d="M9.17187 7.49939C9.5602 7.49939 9.875 7.18459 9.875 6.79626C9.875 6.40794 9.5602 6.09314 9.17187 6.09314C8.78355 6.09314 8.46875 6.40794 8.46875 6.79626C8.46875 7.18459 8.78355 7.49939 9.17187 7.49939Z" fill="#2D3748"/>
<path d="M11.5156 7.49939C11.904 7.49939 12.2187 7.18459 12.2187 6.79626C12.2187 6.40794 11.904 6.09314 11.5156 6.09314C11.1273 6.09314 10.8125 6.40794 10.8125 6.79626C10.8125 7.18459 11.1273 7.49939 11.5156 7.49939Z" fill="#2D3748"/>
<path d="M9.17187 9.84271C9.5602 9.84271 9.875 9.52791 9.875 9.13959C9.875 8.75126 9.5602 8.43646 9.17187 8.43646C8.78355 8.43646 8.46875 8.75126 8.46875 9.13959C8.46875 9.52791 8.78355 9.84271 9.17187 9.84271Z" fill="#2D3748"/>
<path d="M11.5156 9.84271C11.904 9.84271 12.2187 9.52791 12.2187 9.13959C12.2187 8.75126 11.904 8.43646 11.5156 8.43646C11.1273 8.43646 10.8125 8.75126 10.8125 9.13959C10.8125 9.52791 11.1273 9.84271 11.5156 9.84271Z" fill="#2D3748"/>
<path d="M4.48437 9.84271C4.8727 9.84271 5.1875 9.52791 5.1875 9.13959C5.1875 8.75126 4.8727 8.43646 4.48437 8.43646C4.09605 8.43646 3.78125 8.75126 3.78125 9.13959C3.78125 9.52791 4.09605 9.84271 4.48437 9.84271Z" fill="#2D3748"/>
<path d="M6.82812 9.84271C7.21645 9.84271 7.53125 9.52791 7.53125 9.13959C7.53125 8.75126 7.21645 8.43646 6.82812 8.43646C6.4398 8.43646 6.125 8.75126 6.125 9.13959C6.125 9.52791 6.4398 9.84271 6.82812 9.84271Z" fill="#2D3748"/>
<path d="M4.48437 12.1869C4.8727 12.1869 5.1875 11.8721 5.1875 11.4838C5.1875 11.0954 4.8727 10.7806 4.48437 10.7806C4.09605 10.7806 3.78125 11.0954 3.78125 11.4838C3.78125 11.8721 4.09605 12.1869 4.48437 12.1869Z" fill="#2D3748"/>
<path d="M6.82812 12.1869C7.21645 12.1869 7.53125 11.8721 7.53125 11.4838C7.53125 11.0954 7.21645 10.7806 6.82812 10.7806C6.4398 10.7806 6.125 11.0954 6.125 11.4838C6.125 11.8721 6.4398 12.1869 6.82812 12.1869Z" fill="#2D3748"/>
<path d="M9.17187 12.1869C9.5602 12.1869 9.875 11.8721 9.875 11.4838C9.875 11.0954 9.5602 10.7806 9.17187 10.7806C8.78355 10.7806 8.46875 11.0954 8.46875 11.4838C8.46875 11.8721 8.78355 12.1869 9.17187 12.1869Z" fill="#2D3748"/>
<path d="M4.25 1.40558V2.34308" stroke="#2D3748" stroke-width="0.75" stroke-linecap="round" stroke-linejoin="round"/>
<path d="M11.75 1.40558V2.34308" stroke="#2D3748" stroke-width="0.75" stroke-linecap="round" stroke-linejoin="round"/>
</svg>
