<svg width="35" height="35" viewBox="0 0 35 35" fill="none" xmlns="http://www.w3.org/2000/svg">
<circle cx="17.5" cy="17.5" r="17" stroke="#A0AEC0"/>
<g clip-path="url(#clip0_1_2847)">
<path d="M17.4997 22.75C18.144 22.75 18.6663 22.2276 18.6663 21.5833C18.6663 20.939 18.144 20.4166 17.4997 20.4166C16.8553 20.4166 16.333 20.939 16.333 21.5833C16.333 22.2276 16.8553 22.75 17.4997 22.75Z" fill="#A0AEC0"/>
<path d="M17.4997 12.25C16.858 12.25 16.333 12.775 16.333 13.4167V18.0833C16.333 18.725 16.858 19.25 17.4997 19.25C18.1413 19.25 18.6663 18.725 18.6663 18.0833V13.4167C18.6663 12.775 18.1413 12.25 17.4997 12.25Z" fill="#A0AEC0"/>
</g>
<defs>
<clipPath id="clip0_1_2847">
<rect width="14" height="14" fill="white" transform="translate(10.5 10.5)"/>
</clipPath>
</defs>
</svg>
