<svg width="19" height="24" viewBox="0 0 19 24" fill="none" xmlns="http://www.w3.org/2000/svg">
<path d="M16.1787 2.53221C15.1416 1.35735 13.2646 0.854034 10.8634 0.854034H3.89481C3.40401 0.854034 2.9869 1.20858 2.90903 1.68826L0.00737232 19.9452C-0.0496329 20.3053 0.231222 20.6307 0.59828 20.6307H4.90009L5.98041 13.8318L5.94704 14.0459C6.02351 13.5662 6.43923 13.2117 6.93003 13.2117H8.97388C12.9907 13.2117 16.1343 11.5933 17.0533 6.91188C17.0811 6.77285 17.1242 6.50589 17.1242 6.50589C17.3856 4.77349 17.1228 3.59863 16.1787 2.53221Z" fill="white"/>
<path d="M18.2131 7.39297C17.2148 12.0021 14.0295 14.4408 8.97407 14.4408H7.14156L5.77344 23.1H8.74605C9.17568 23.1 9.54134 22.7899 9.60808 22.3687L9.64284 22.1851L10.3269 17.8875L10.3714 17.6511C10.4381 17.2299 10.8038 16.9198 11.232 16.9198H11.7757C15.2891 16.9198 18.0393 15.5044 18.8429 11.4098C19.1655 9.76634 19.0098 8.38848 18.2131 7.39297Z" fill="white"/>
</svg>
