<svg width="12" height="13" viewBox="0 0 12 13" fill="none" xmlns="http://www.w3.org/2000/svg">
<path d="M7.79627 2.01341C7.34018 1.52099 6.70315 1.24982 6.00002 1.24982C5.29315 1.24982 4.65401 1.51935 4.20002 2.00872C3.74112 2.50349 3.51752 3.17591 3.57002 3.902C3.67409 5.3345 4.76416 6.49981 6.00002 6.49981C7.23588 6.49981 8.32408 5.33474 8.42979 3.90247C8.48299 3.18294 8.25799 2.51193 7.79627 2.01341Z" fill="white"/>
<path d="M10.1249 11.7493H1.87489C1.7669 11.7507 1.65996 11.728 1.56185 11.6829C1.46374 11.6377 1.37691 11.5713 1.3077 11.4884C1.15536 11.3063 1.09395 11.0576 1.13942 10.8061C1.33723 9.7088 1.95458 8.787 2.92489 8.13989C3.78692 7.56544 4.87887 7.24927 5.99989 7.24927C7.1209 7.24927 8.21285 7.56567 9.07488 8.13989C10.0452 8.78677 10.6625 9.70856 10.8604 10.8059C10.9058 11.0574 10.8444 11.3061 10.6921 11.4882C10.6229 11.5711 10.5361 11.6376 10.438 11.6828C10.3398 11.7279 10.2329 11.7506 10.1249 11.7493V11.7493Z" fill="white"/>
</svg>
