<svg width="12" height="11" viewBox="0 0 12 11" fill="none" xmlns="http://www.w3.org/2000/svg">
<g clip-path="url(#clip0_1_2640)">
<path d="M10.2225 2.92497C10.2354 2.9174 10.2462 2.90656 10.2537 2.89354C10.2612 2.88052 10.2651 2.86576 10.2651 2.85074C10.2651 2.83572 10.2612 2.82096 10.2537 2.80794C10.2462 2.79492 10.2354 2.78408 10.2225 2.77651L6.94095 0.869988C6.73098 0.748283 6.4926 0.684189 6.24991 0.684189C6.00722 0.684189 5.76883 0.748283 5.55886 0.869988L2.27798 2.77651C2.26501 2.78408 2.25425 2.79492 2.24677 2.80794C2.23929 2.82096 2.23535 2.83572 2.23535 2.85074C2.23535 2.86576 2.23929 2.88052 2.24677 2.89354C2.25425 2.90656 2.26501 2.9174 2.27798 2.92497L6.20704 5.23626C6.22026 5.24404 6.23532 5.24815 6.25066 5.24815C6.266 5.24815 6.28105 5.24404 6.29427 5.23626L10.2225 2.92497Z" fill="#2D3748"/>
<path d="M1.91016 3.50927C1.89705 3.5017 1.88218 3.49773 1.86705 3.49776C1.85192 3.49778 1.83706 3.5018 1.82398 3.50941C1.8109 3.51702 1.80006 3.52795 1.79256 3.54109C1.78505 3.55423 1.78115 3.56912 1.78125 3.58425V7.32017C1.78158 7.5002 1.82903 7.67701 1.91888 7.83302C2.00874 7.98903 2.13787 8.11879 2.29344 8.20941L5.77734 10.2983C5.7904 10.3059 5.80521 10.3098 5.82029 10.3098C5.83537 10.3098 5.85018 10.3059 5.86324 10.2984C5.87631 10.2908 5.88716 10.28 5.8947 10.2669C5.90225 10.2539 5.90624 10.2391 5.90625 10.224V5.88952C5.90624 5.87445 5.90226 5.85965 5.89472 5.84661C5.88717 5.83356 5.87633 5.82272 5.86328 5.81519L1.91016 3.50927Z" fill="#2D3748"/>
<path d="M6.59375 5.9046V10.223C6.59377 10.238 6.59775 10.2528 6.6053 10.2659C6.61285 10.279 6.6237 10.2898 6.63676 10.2973C6.64982 10.3049 6.66463 10.3088 6.67971 10.3088C6.69479 10.3088 6.7096 10.3048 6.72266 10.2973L10.2063 8.20837C10.3618 8.11788 10.4909 7.98829 10.5808 7.83249C10.6706 7.67669 10.7182 7.50008 10.7187 7.32021V3.58429C10.7187 3.56923 10.7147 3.55445 10.7071 3.54143C10.6996 3.52841 10.6887 3.5176 10.6756 3.5101C10.6626 3.50259 10.6478 3.49864 10.6327 3.49866C10.6177 3.49867 10.6029 3.50264 10.5898 3.51017L6.63672 5.83048C6.6237 5.838 6.61288 5.8488 6.60534 5.86181C6.5978 5.87481 6.5938 5.88957 6.59375 5.9046Z" fill="#2D3748"/>
</g>
<defs>
<clipPath id="clip0_1_2640">
<rect width="11" height="11" fill="white" transform="translate(0.75 -0.00283813)"/>
</clipPath>
</defs>
</svg>
