<svg width="13" height="13" viewBox="0 0 13 13" fill="none" xmlns="http://www.w3.org/2000/svg">
<g clip-path="url(#clip0_1_2571)">
<path d="M12.125 3.06659C11.703 3.24996 11.2565 3.37076 10.7996 3.42519C11.2798 3.14403 11.6409 2.69735 11.8152 2.16894C11.3612 2.43439 10.8654 2.62064 10.3489 2.71972C10.1314 2.4918 9.86987 2.31048 9.58014 2.18678C9.2904 2.06309 8.97854 1.9996 8.66351 2.00019C7.38804 2.00019 6.35586 3.01737 6.35586 4.27128C6.35495 4.44569 6.37494 4.61959 6.41539 4.78925C5.50078 4.74637 4.6052 4.51306 3.78593 4.10423C2.96666 3.6954 2.24175 3.12007 1.65758 2.41503C1.45263 2.76053 1.34425 3.15473 1.34375 3.55644C1.34375 4.34394 1.75461 5.04003 2.375 5.44784C2.00744 5.43912 1.6474 5.34183 1.32547 5.16425V5.19237C1.32547 6.29393 2.12234 7.21034 3.17703 7.41893C2.9787 7.4718 2.77432 7.49859 2.56906 7.49862C2.42342 7.49887 2.2781 7.48474 2.13523 7.45643C2.42844 8.35878 3.2818 9.01503 4.29265 9.03378C3.47126 9.6668 2.4628 10.0089 1.42578 10.0064C1.24171 10.0062 1.0578 9.9952 0.875 9.97362C1.92996 10.6473 3.15628 11.0036 4.40797 11.0002C8.65859 11.0002 10.9808 7.53846 10.9808 4.53612C10.9808 4.43769 10.9782 4.33925 10.9735 4.24315C11.4242 3.92254 11.8142 3.52412 12.125 3.06659Z" fill="#3182CE"/>
</g>
<defs>
<clipPath id="clip0_1_2571">
<rect width="12" height="12" fill="white" transform="translate(0.5 0.5)"/>
</clipPath>
</defs>
</svg>
