<svg width="74" height="27" viewBox="0 0 74 27" fill="none" xmlns="http://www.w3.org/2000/svg">
<path fill-rule="evenodd" clip-rule="evenodd" d="M2.72071 15.5515L0.464401 11.6435L3.10027 7.09932L8.35356 7.08866L10.6099 10.9967L14.8184 10.9985L17.4207 15.5058L14.7698 20.024L10.5762 20.048L8.45858 23.6677L3.22032 23.7044L0.618033 19.1971L2.72071 15.5515ZM13.8976 18.5126L15.67 15.5093L13.925 12.4869L10.4378 12.5201L8.85324 15.2414L10.7487 18.5243L13.8976 18.5126ZM7.5864 22.1564L9.171 19.4352L7.27559 16.1522L4.12663 16.1639L2.35426 19.1673L4.09924 22.1896L7.5864 22.1564ZM7.43267 14.6026L9.20504 11.5992L7.46006 8.57684L3.9729 8.61008L2.20053 11.6134L3.94551 14.6358L7.43267 14.6026Z" fill="#1A202C"/>
<path d="M29.0761 10.956C26.9881 10.956 25.2961 12 24.7201 13.62L27.0421 14.736C27.3301 13.854 28.1221 13.296 29.0761 13.296C29.9761 13.296 30.5881 13.782 30.5881 14.52V14.844L27.5101 15.492C25.5121 15.906 24.3601 16.86 24.3601 18.318C24.3601 19.956 25.7641 21.216 27.9961 21.216C29.1301 21.216 30.0301 20.874 30.7681 20.1V21H33.2881V14.52C33.2881 12.414 31.5781 10.956 29.0761 10.956ZM28.4101 19.236C27.6361 19.236 27.1501 18.876 27.1501 18.282C27.1501 17.832 27.4381 17.49 27.9961 17.364L30.5881 16.788V17.256C30.5881 18.354 29.6341 19.236 28.4101 19.236ZM39.5502 11.064C38.3442 11.064 37.3902 11.424 36.8862 12.648V11.172H34.3662V21H37.0662V15.708C37.0662 14.25 37.9662 13.404 39.2802 13.404H40.5762V11.064H39.5502ZM48.5732 11.172V12.216C47.8892 11.424 46.8812 10.956 45.6032 10.956C43.1012 10.956 40.7612 12.738 40.7612 15.708C40.7612 18.606 42.9932 20.514 45.6572 20.514C46.7552 20.514 47.7092 20.172 48.3932 19.524V20.478C48.3932 21.756 47.3852 22.566 46.0352 22.566C44.8472 22.566 44.0192 21.936 43.7132 20.874L41.4092 22.008C41.9852 23.808 43.7852 24.996 46.0352 24.996C48.7712 24.996 51.0932 23.232 51.0932 20.478V11.172H48.5732ZM45.9992 18.066C44.6132 18.066 43.5512 17.112 43.5512 15.744C43.5512 14.34 44.6492 13.386 45.9992 13.386C47.3492 13.386 48.3932 14.34 48.3932 15.744C48.3932 17.112 47.3852 18.066 45.9992 18.066ZM57.2411 21.216C60.1571 21.216 62.4971 19.056 62.4971 16.086C62.4971 13.116 60.1571 10.956 57.2411 10.956C54.3251 10.956 51.9851 13.116 51.9851 16.086C51.9851 19.056 54.3251 21.216 57.2411 21.216ZM57.2411 18.786C55.7651 18.786 54.7751 17.67 54.7751 16.086C54.7751 14.52 55.7651 13.386 57.2411 13.386C58.7171 13.386 59.7071 14.52 59.7071 16.086C59.7071 17.67 58.7171 18.786 57.2411 18.786ZM68.6716 10.956C67.4296 10.956 66.4216 11.406 65.9176 12.36V11.172H63.3976V21H66.0976V15.258C66.0976 14.124 66.8356 13.386 67.8976 13.386C68.9596 13.386 69.6976 14.124 69.6976 15.258V21H72.3976V14.682C72.3976 12.45 70.8856 10.956 68.6716 10.956Z" fill="#1A202C"/>
</svg>
